<svg>
    <symbol id="clock" viewBox="0 0 24 24" fill="none" xmlns="http://www.w3.org/2000/svg">
        <path d="M12 8V12L14.5 14.5M21 12C21 16.9706 16.9706 21 12 21C7.02944 21 3 16.9706 3 12C3 7.02944 7.02944 3 12 3C16.9706 3 21 7.02944 21 12Z" stroke="currentColor" stroke-width="2" stroke-linecap="square"/>
    </symbol>
    <symbol id="picture" viewBox="0 0 24 24" fill="none" xmlns="http://www.w3.org/2000/svg">
        <path d="M15 6.5C13.6193 6.5 12.5 7.61929 12.5 9C12.5 10.3807 13.6193 11.5 15 11.5C16.3807 11.5 17.5 10.3807 17.5 9C17.5 7.61929 16.3807 6.5 15 6.5Z" fill="currentColor"/>
        <path fill-rule="evenodd" clip-rule="evenodd" d="M3 3H21V21H18.5266L18.4945 21.0002H5.5L5.46787 21H3V3ZM19 12.8362C17.8552 13.898 16.7044 14.4537 15 14.4537C13.0944 14.4537 11.6208 13.2859 10.1527 11.7048C9.15108 10.6262 7.51491 10.4335 6.29018 11.25L6.26758 11.2651L5 12.2134V5H19V12.8362Z" fill="currentColor"/>
    </symbol>
    <symbol id="search" viewBox="0 0 24 24" fill="none" xmlns="http://www.w3.org/2000/svg">
        <path d="M20 20L16.05 16.05M18 11C18 14.866 14.866 18 11 18C7.13401 18 4 14.866 4 11C4 7.13401 7.13401 4 11 4C14.866 4 18 7.13401 18 11Z" stroke="currentColor" stroke-width="2" stroke-linecap="square"/>
    </symbol>
    <symbol id="smile" viewBox="0 0 24 24" fill="none" xmlns="http://www.w3.org/2000/svg">
        <path d="M17.5 12C17.5 15.0376 15.0376 17.5 12 17.5C8.96243 17.5 6.5 15.0376 6.5 12M21 12C21 16.9706 16.9706 21 12 21C7.02944 21 3 16.9706 3 12C3 7.02944 7.02944 3 12 3C16.9706 3 21 7.02944 21 12Z" stroke="currentColor" stroke-width="2"/>
        <path d="M11 9C11 9.82843 10.3284 10.5 9.5 10.5C8.67157 10.5 8 9.82843 8 9C8 8.17157 8.67157 7.5 9.5 7.5C10.3284 7.5 11 8.17157 11 9Z" fill="currentColor"/>
        <path d="M16 9C16 9.82843 15.3284 10.5 14.5 10.5C13.6716 10.5 13 9.82843 13 9C13 8.17157 13.6716 7.5 14.5 7.5C15.3284 7.5 16 8.17157 16 9Z" fill="currentColor"/>
    </symbol>
    <symbol id="trash" viewBox="0 0 24 24" fill="none" xmlns="http://www.w3.org/2000/svg">
        <path d="M6 21L5.00221 21.0665L5.06445 22H6V21ZM18 21V22H18.9356L18.9978 21.0665L18 21ZM3 5H2V7H3V5ZM21 7H22V5H21V7ZM11 11V10H9V11H11ZM9 16V17H11V16H9ZM15 11V10H13V11H15ZM13 16V17H15V16H13ZM4.00221 6.06652L5.00221 21.0665L6.99779 20.9335L5.99779 5.93348L4.00221 6.06652ZM6 22H18V20H6V22ZM18.9978 21.0665L19.9978 6.06652L18.0022 5.93348L17.0022 20.9335L18.9978 21.0665ZM19 5H5V7H19V5ZM3 7H5V5H3V7ZM19 7H21V5H19V7ZM9 11V16H11V11H9ZM13 11V16H15V11H13ZM12 4C13.3965 4 14.5725 4.95512 14.9055 6.24926L16.8424 5.75074C16.2874 3.59442 14.3312 2 12 2V4ZM9.09445 6.24926C9.42754 4.95512 10.6035 4 12 4V2C9.66883 2 7.71258 3.59442 7.15758 5.75074L9.09445 6.24926Z" fill="currentColor"/>
    </symbol>
    <symbol id="chevron-down" xmlns="http://www.w3.org/2000/svg" viewBox="0 0 24 24" fill="none">
        <path d="M8 10L12 14L16 10" stroke="currentColor" stroke-width="2" stroke-linecap="square"/>
    </symbol>
    <symbol id="burger" fill="currentColor" viewBox="0 0 24 24" xmlns="http://www.w3.org/2000/svg">
        <path d="M0 0h24v24H0z" fill="none"/>
        <path d="M3 18h18v-2H3v2zm0-5h18v-2H3v2zm0-7v2h18V6H3z"/>
    </symbol>
</svg>
